<?xml version="1.0" encoding="UTF-8" standalone="no"?>
<!DOCTYPE svg PUBLIC "-//W3C//DTD SVG 20010904//EN"
              "http://www.w3.org/TR/2001/REC-SVG-20010904/DTD/svg10.dtd">

<svg xmlns="http://www.w3.org/2000/svg" 
     viewBox="0 0 512 512">
	<path id="Selection"
		  fill="#333333" stroke="#303030" stroke-width="1"
		  d="M76.475 331.292C77.844 326.645 80.607 324.137 84.114 321.011 90.296 315.504 97.483 310.641 105.123 307.375 110.782 304.949 116.906 304.23 122.948 303.23 122.948 303.23 145.229 299.411 145.229 299.411 165.639 296.03 185.712 291.447 205.708 286.169 233.273 278.886 262.729 268.051 287.194 253.371 300.716 245.254 314.549 234.807 323.659 221.795 329.981 212.768 333.336 202.193 336.85 191.874 336.85 191.874 348.506 161.953 348.506 161.953 352.148 154.008 358.622 144.987 366.134 140.385 375.117 134.872 388.339 134.942 397.965 138.691 418.871 146.84 435.487 169.128 435.525 191.874 435.525 191.874 435.525 199.513 435.525 199.513 435.442 206.624 432.202 216.314 427.675 221.795 418.387 233.037 408.889 234.05 395.418 233.89 387.798 233.801 380.057 230.663 376.32 223.705 370.31 227.518 365.733 233.126 360.997 238.347 345.871 255.013 330.757 281.452 330.484 304.554 330.331 317.822 333.374 330.904 337.703 343.388 339.135 347.513 344.979 361.882 345.037 365.033 345.19 373.06 333.686 373.302 327.937 373.309 327.937 373.309 310.749 373.309 310.749 373.309 298.462 373.162 292.535 369.145 286.303 358.667 286.303 358.667 280.885 346.577 280.885 346.577 280.026 344.852 279.103 343.452 276.996 343.426 276.996 343.426 263.639 346.444 263.639 346.444 254.192 348.334 242.676 350.378 233.082 350.391 233.082 350.391 196.795 349.646 196.795 349.646 196.795 349.646 183.426 348.201 183.426 348.201 181.395 347.882 177.677 346.864 175.787 347.316 171.674 348.296 166.639 357.629 164.054 361.213 157.847 369.846 152.69 373.181 142.046 373.309 142.046 373.309 116.582 372.939 116.582 372.939 111.056 372.137 107.65 370.037 109.445 363.76 109.445 363.76 121.827 343.388 121.827 343.388 122.814 341.389 124.972 337.334 124.094 335.137 122.655 331.572 115.557 329.924 112.125 329.255 97.744 326.479 90.2 328.708 76.475 331.292ZM215.257 141.849C235.762 139.347 261.895 146.101 277.645 159.598 281.204 162.647 285.361 167.097 288.162 170.866 288.162 170.866 294.521 179.6 294.521 179.6 297.743 182.821 302.377 181.433 306.929 184.648 315.702 190.849 315.224 204.676 309.73 212.882 305.917 218.586 298.628 223.934 292.924 227.734 283.476 234.037 273.742 239.696 263.639 244.878 240.129 256.929 217.816 265.282 192.339 272.183 178.009 276.066 151.347 282.248 136.953 282.273 136.953 282.273 124.858 282.273 124.858 282.273 115.398 282.158 107.147 278.141 107.033 267.631 107.013 265.626 106.962 263.824 107.65 261.901 109.617 256.376 114.035 254.135 114.264 251.079 114.36 249.85 112.781 245.693 112.367 244.076 111.667 241.352 110.769 233.47 110.878 230.707 110.878 230.707 111.514 225.614 111.514 225.614 111.514 225.614 111.514 219.248 111.514 219.248 112.113 213.901 114.576 205.039 116.779 200.15 119.714 193.637 123.196 187.259 127.697 181.688 142.976 162.781 166.422 151.347 189.792 145.968 189.792 145.968 215.257 141.849 215.257 141.849Z" />
</svg>
