<?xml version="1.0" encoding="UTF-8" standalone="no"?>
<!DOCTYPE svg PUBLIC "-//W3C//DTD SVG 20010904//EN"
              "http://www.w3.org/TR/2001/REC-SVG-20010904/DTD/svg10.dtd">

<svg xmlns="http://www.w3.org/2000/svg"
     viewBox="0 0 512 512">
	<path id="Selection"
		  fill="#333333" stroke="#303030" stroke-width="1"
		  d="M116.315 314.584C117.38 310.968 119.529 309.016 122.259 306.584 127.069 302.299 132.661 298.515 138.605 295.974 143.009 294.087 147.774 293.527 152.474 292.749 152.474 292.749 169.811 289.777 169.811 289.777 185.692 287.147 201.31 283.58 216.868 279.474 238.316 273.807 261.236 265.377 280.272 253.954 290.793 247.639 301.556 239.51 308.644 229.386 313.563 222.362 316.174 214.134 318.908 206.105 318.908 206.105 327.978 182.824 327.978 182.824 330.811 176.642 335.848 169.623 341.693 166.042 348.683 161.752 358.971 161.807 366.46 164.724 382.727 171.064 395.656 188.406 395.685 206.105 395.685 206.105 395.685 212.049 395.685 212.049 395.621 217.582 393.1 225.121 389.578 229.386 382.351 238.133 374.96 238.921 364.479 238.797 358.55 238.728 352.526 236.286 349.619 230.872 344.943 233.839 341.381 238.203 337.696 242.264 325.927 255.232 314.168 275.804 313.955 293.779 313.836 304.102 316.203 314.281 319.572 323.995 320.686 327.205 325.233 338.385 325.278 340.836 325.397 347.083 316.446 347.271 311.973 347.276 311.973 347.276 298.599 347.276 298.599 347.276 289.039 347.162 284.427 344.036 279.578 335.883 279.578 335.883 275.363 326.477 275.363 326.477 274.694 325.134 273.976 324.045 272.336 324.025 272.336 324.025 261.944 326.373 261.944 326.373 254.593 327.844 245.633 329.434 238.168 329.444 238.168 329.444 209.934 328.864 209.934 328.864 209.934 328.864 199.531 327.74 199.531 327.74 197.951 327.492 195.059 326.7 193.587 327.051 190.388 327.814 186.469 335.076 184.458 337.864 179.629 344.581 175.617 347.177 167.335 347.276 167.335 347.276 147.521 346.989 147.521 346.989 143.222 346.364 140.571 344.73 141.968 339.846 141.968 339.846 151.603 323.995 151.603 323.995 152.37 322.44 154.05 319.284 153.366 317.575 152.247 314.802 146.724 313.519 144.054 312.999 132.864 310.839 126.994 312.573 116.315 314.584ZM224.298 167.181C240.253 165.234 260.587 170.49 272.841 180.991 275.61 183.364 278.845 186.826 281.024 189.758 281.024 189.758 285.973 196.555 285.973 196.555 288.479 199.061 292.085 197.981 295.627 200.483 302.453 205.307 302.081 216.066 297.807 222.451 294.839 226.889 289.168 231.05 284.73 234.007 277.379 238.911 269.805 243.314 261.944 247.346 243.651 256.723 226.29 263.222 206.466 268.591 195.316 271.613 174.571 276.423 163.372 276.443 163.372 276.443 153.96 276.443 153.96 276.443 146.6 276.353 140.18 273.228 140.091 265.05 140.076 263.49 140.036 262.088 140.571 260.592 142.102 256.292 145.54 254.549 145.718 252.171 145.792 251.215 144.564 247.98 144.242 246.722 143.697 244.602 142.999 238.47 143.083 236.32 143.083 236.32 143.578 232.358 143.578 232.358 143.578 232.358 143.578 227.404 143.578 227.404 144.044 223.243 145.961 216.348 147.675 212.544 149.958 207.477 152.668 202.513 156.17 198.179 168.058 183.468 186.301 174.571 204.485 170.386 204.485 170.386 224.298 167.181 224.298 167.181Z" />
</svg>
